<?xml version="1.0" encoding="iso-8859-1"?>
<!-- Generator: Adobe Illustrator 22.1.0, SVG Export Plug-In . SVG Version: 6.00 Build 0)  -->
<svg xmlns="http://www.w3.org/2000/svg" xmlns:xlink="http://www.w3.org/1999/xlink" version="1.1" id="Layer_1_1_" x="0px" y="0px" viewBox="0 0 64 64" style="enable-background:new 0 0 64 64;" xml:space="preserve" width="512" height="512">
<g>
	<path d="M61,22v27H3V22c0-1.654,1.346-3,3-3h16v-2H6c-2.757,0-5,2.243-5,5v30c0,2.757,2.243,5,5,5h13v4h-4v2h34v-2h-4v-4h13   c2.757,0,5-2.243,5-5V22H61z M43,61H21v-4h22V61z M58,55H6c-1.654,0-3-1.346-3-3v-1h58v1C61,53.654,59.654,55,58,55z"/>
	<g>
		<path style="fill:#F0BC5E;" d="M63,26.79v-9.58l-3.938-0.936c-0.264-0.791-0.58-1.559-0.945-2.294l2.12-3.442l-6.774-6.774    l-3.442,2.12c-0.735-0.365-1.503-0.682-2.294-0.945L46.79,1h-9.58l-0.936,3.938c-0.791,0.264-1.559,0.58-2.294,0.945l-3.442-2.12    l-6.774,6.774l2.12,3.442c-0.365,0.735-0.682,1.503-0.945,2.294L21,17.21v9.58l3.938,0.936c0.264,0.791,0.58,1.559,0.945,2.294    l-2.12,3.442l6.774,6.774l3.442-2.12c0.735,0.365,1.503,0.682,2.294,0.945L37.21,43h9.58l0.936-3.938    c0.791-0.264,1.559-0.58,2.294-0.945l3.442,2.12l6.774-6.774l-2.12-3.442c0.365-0.735,0.682-1.503,0.945-2.294L63,26.79z M42,35    c-7.18,0-13-5.82-13-13S34.82,9,42,9s13,5.82,13,13S49.18,35,42,35z"/>
	</g>
	<g>
		<path d="M42,36c-7.72,0-14-6.28-14-14S34.28,8,42,8s14,6.28,14,14S49.72,36,42,36z M42,10c-6.617,0-12,5.383-12,12s5.383,12,12,12    s12-5.383,12-12S48.617,10,42,10z"/>
	</g>
	<g>
		<rect x="32" y="21" width="2" height="2"/>
	</g>
	<g>
		<rect x="36" y="21" width="16" height="2"/>
	</g>
	<g>
		<rect x="9" y="27" style="fill:#F0BC5E;" width="6" height="15"/>
	</g>
	<g>
		<rect x="17" y="35" style="fill:#F0BC5E;" width="6" height="7"/>
	</g>
	<g>
		<rect x="38" y="25" width="12" height="2"/>
	</g>
	<g>
		<rect x="34" y="25" width="2" height="2"/>
	</g>
	<g>
		<rect x="38" y="17" width="12" height="2"/>
	</g>
	<g>
		<rect x="34" y="17" width="2" height="2"/>
	</g>
	<g>
		<polygon points="25,43 5,43 5,22 7,22 7,41 25,41   "/>
	</g>
</g>
</svg>
